<?xml version="1.0" encoding="utf-8"?>
<!-- Generator: Adobe Illustrator 19.0.0, SVG Export Plug-In . SVG Version: 6.00 Build 0)  -->
<svg version="1.1" xmlns="http://www.w3.org/2000/svg" xmlns:xlink="http://www.w3.org/1999/xlink" x="0px" y="0px"
	 viewBox="-509 282 180 67" style="enable-background:new -509 282 180 67;" xml:space="preserve">
<style type="text/css">
	.st0{enable-background:new    ;}
</style>
<g id="Layer_2">
</g>
<g id="Layer_1">
	<g>
		<g>
			<polygon points="-486.2,307.5 -481,329.8 -447.1,333.1 -469,297.6 			"/>
			<polygon points="-469.3,348 -453,347.9 -459.1,343 			"/>
			<polygon points="-507.5,319.8 -485.3,321.3 -488.1,308.5 			"/>
			<polygon points="-473.8,347.3 -449.2,335.4 -474.2,332.8 			"/>
			<polygon points="-425.7,286.8 -428.6,293.7 -422.2,293.7 			"/>
			<polygon points="-443.4,283 -466.7,296.3 -438.6,314.9 -427.5,285.2 			"/>
			<polygon points="-444.9,332.2 -439.5,317.6 -465,300.2 			"/>
		</g>
		<g id="dmailer-_x2B_-Rectangle-48" transform="translate(274.000000, 150.000000)">
			<g class="st0">
				<path d="M-691.8,160.7h3.2v23.7h-3.2v-1.4c-1.2,1.2-2.6,1.8-4.2,1.8c-1.9,0-3.4-0.7-4.7-2c-1.2-1.4-1.8-3.1-1.8-5.2
					c0-2,0.6-3.7,1.8-5.1c1.2-1.4,2.7-2.1,4.6-2.1c1.6,0,3,0.7,4.3,2V160.7z M-699.3,177.5c0,1.3,0.4,2.4,1.1,3.2
					c0.7,0.8,1.6,1.2,2.7,1.2c1.2,0,2.1-0.4,2.8-1.2c0.7-0.8,1.1-1.9,1.1-3.2s-0.4-2.3-1.1-3.2c-0.7-0.8-1.7-1.2-2.8-1.2
					c-1.1,0-2,0.4-2.7,1.2C-698.9,175.2-699.3,176.2-699.3,177.5z"/>
				<path d="M-684.7,170.7h3.2v1.3c0.6-0.6,1.1-1.1,1.6-1.3c0.5-0.2,1-0.3,1.7-0.3c1.5,0,2.8,0.7,3.7,2c1-1.3,2.3-2,4-2
					c3.1,0,4.6,1.9,4.6,5.6v8.4h-3.2v-7.6c0-1.3-0.2-2.2-0.5-2.8c-0.3-0.6-0.9-0.8-1.6-0.8c-0.9,0-1.5,0.3-1.9,1
					c-0.4,0.7-0.6,1.7-0.6,3.2v7h-3.2v-7.5c0-2.4-0.7-3.6-2.1-3.6c-0.9,0-1.5,0.3-1.9,1c-0.4,0.7-0.6,1.7-0.6,3.1v7h-3.2V170.7z"/>
				<path d="M-651.9,170.7h3.2v13.6h-3.2v-1.4c-1.3,1.2-2.7,1.8-4.2,1.8c-1.9,0-3.4-0.7-4.7-2c-1.2-1.4-1.8-3.1-1.8-5.2
					c0-2,0.6-3.7,1.8-5.1c1.2-1.4,2.8-2,4.6-2c1.6,0,3,0.7,4.3,2V170.7z M-659.4,177.5c0,1.3,0.4,2.4,1.1,3.2
					c0.7,0.8,1.6,1.2,2.7,1.2c1.2,0,2.1-0.4,2.8-1.2c0.7-0.8,1.1-1.9,1.1-3.2s-0.4-2.3-1.1-3.2c-0.7-0.8-1.7-1.2-2.8-1.2
					c-1.1,0-2,0.4-2.7,1.2C-659,175.2-659.4,176.2-659.4,177.5z"/>
				<path d="M-645.2,165c0-0.6,0.2-1,0.6-1.4c0.4-0.4,0.9-0.6,1.4-0.6c0.6,0,1.1,0.2,1.5,0.6c0.4,0.4,0.6,0.9,0.6,1.4
					s-0.2,1.1-0.6,1.5c-0.4,0.4-0.9,0.6-1.4,0.6s-1.1-0.2-1.5-0.6S-645.2,165.6-645.2,165z M-641.6,170.7v13.6h-3.2v-13.6H-641.6z"
					/>
				<path d="M-634.5,160.7v23.7h-3.2v-23.7H-634.5z"/>
				<path d="M-618,178.2h-9.8c0.1,1.1,0.4,2,1.1,2.7c0.6,0.7,1.5,1,2.5,1c0.8,0,1.4-0.2,1.9-0.6c0.5-0.4,1.1-1.1,1.7-2.1l2.7,1.5
					c-0.4,0.7-0.8,1.3-1.3,1.8c-0.5,0.5-0.9,0.9-1.5,1.2c-0.5,0.3-1.1,0.6-1.7,0.7s-1.3,0.2-2,0.2c-2,0-3.7-0.7-4.9-2
					c-1.2-1.3-1.8-3.1-1.8-5.2c0-2.2,0.6-3.9,1.8-5.2c1.2-1.3,2.8-2,4.8-2c2,0,3.6,0.6,4.8,1.9c1.2,1.3,1.7,3,1.7,5.3L-618,178.2z
					 M-621.3,175.7c-0.4-1.7-1.5-2.5-3.2-2.5c-0.4,0-0.7,0.1-1.1,0.2c-0.3,0.1-0.6,0.3-0.9,0.5c-0.3,0.2-0.5,0.5-0.7,0.8
					c-0.2,0.3-0.3,0.7-0.4,1H-621.3z"/>
				<path d="M-614.6,170.7h3.2v1.2c0.6-0.6,1.1-1,1.5-1.2c0.5-0.2,1-0.3,1.6-0.3c0.8,0,1.7,0.3,2.6,0.8l-1.4,2.9
					c-0.6-0.4-1.2-0.6-1.8-0.6c-1.7,0-2.6,1.3-2.6,3.9v7.1h-3.2V170.7z"/>
			</g>
		</g>
	</g>
</g>
</svg>
