<?xml version="1.0" encoding="utf-8"?>
<!-- Generator: Adobe Illustrator 19.0.0, SVG Export Plug-In . SVG Version: 6.00 Build 0)  -->
<svg version="1.1"
	 id="svg2" xmlns:inkscape="http://www.inkscape.org/namespaces/inkscape" xmlns:sodipodi="http://sodipodi.sourceforge.net/DTD/sodipodi-0.dtd" xmlns:svg="http://www.w3.org/2000/svg" xmlns:sketch="http://www.bohemiancoding.com/sketch/ns" xmlns:rdf="http://www.w3.org/1999/02/22-rdf-syntax-ns#" xmlns:cc="http://creativecommons.org/ns#" xmlns:dc="http://purl.org/dc/elements/1.1/" inkscape:version="0.48.4 r9939" sodipodi:docname="eecard-logo.svg"
	 xmlns="http://www.w3.org/2000/svg" xmlns:xlink="http://www.w3.org/1999/xlink" x="0px" y="0px" viewBox="-213.6 104 289.5 76"
	 style="enable-background:new -213.6 104 289.5 76;" xml:space="preserve">
<style type="text/css">
	.st0{fill:#E78E8E;}
	.st1{fill:#E88E8E;}
</style>
<sodipodi:namedview  id="namedview17" fit-margin-top="0" guidetolerance="10" borderopacity="1" pagecolor="#ffffff" bordercolor="#666666" showgrid="false" fit-margin-left="0" objecttolerance="10" gridtolerance="10" inkscape:current-layer="svg2" inkscape:window-maximized="1" inkscape:window-y="24" inkscape:window-x="65" fit-margin-bottom="0" fit-margin-right="0" inkscape:window-height="1056" inkscape:window-width="1855" inkscape:pageshadow="2" inkscape:pageopacity="0" inkscape:cy="5.6141077" inkscape:cx="46.66548" inkscape:zoom="4.5271318">
	</sodipodi:namedview>
<title  id="title4">LOGO</title>
<desc  id="desc6">Created with Sketch.</desc>
<g>
	<path id="e" inkscape:connector-curvature="0" sketch:type="MSShapeGroup" class="st0" d="M-153,180c-3.7,0-7-0.6-10-1.9
		c-3-1.3-5.5-3-7.6-5.3s-3.7-5-4.9-8.1c-1.1-3.1-1.7-6.5-1.7-10.3v-2.1c0-4.3,0.6-8.1,1.9-11.5s3-6.2,5.2-8.5s4.6-4.1,7.4-5.3
		s5.6-1.8,8.6-1.8c3.8,0,7,0.7,9.8,2s5,3.1,6.8,5.4s3.1,5,3.9,8.2s1.3,6.6,1.3,10.3v4.1h-35.8c0.1,2.4,0.5,4.7,1.2,6.8
		s1.8,4,3.1,5.5s3,2.8,4.9,3.7c1.9,0.9,4.1,1.4,6.5,1.4c3.2,0,5.9-0.7,8.1-2s4.2-3,5.8-5.2l5.5,4.3c-0.8,1.3-1.9,2.6-3.1,3.8
		s-2.6,2.3-4.2,3.3s-3.5,1.7-5.5,2.3C-148,179.7-150.3,180-153,180L-153,180z M-154.1,132.6c-1.8,0-3.5,0.3-5,1s-2.9,1.6-4.1,2.9
		s-2.2,2.8-3,4.7c-0.8,1.9-1.3,4.1-1.6,6.5h26.5V147c-0.1-1.8-0.4-3.5-0.9-5.2c-0.5-1.7-1.2-3.3-2.2-4.6s-2.3-2.5-3.8-3.3
		S-151.8,132.6-154.1,132.6L-154.1,132.6z"/>
	<path id="path14" inkscape:connector-curvature="0" sketch:type="MSShapeGroup" class="st1" d="M-193,180c3.7,0,7-0.6,10-1.9
		c3-1.3,5.5-3,7.6-5.3s3.7-5,4.9-8.1c1.1-3.1,1.7-6.5,1.7-10.3v-2.1c0-4.3-0.6-8.1-1.9-11.5s-3-6.2-5.2-8.5s-4.6-4.1-7.4-5.3
		s-5.6-1.8-8.6-1.8c-3.8,0-7,0.7-9.8,2s-5,3.1-6.8,5.4s-3.1,5-3.9,8.2s-1.3,6.6-1.3,10.3v4.1h35.8c-0.1,2.4-0.5,4.7-1.2,6.8
		s-1.8,4-3.1,5.5s-3,2.8-4.9,3.7c-1.9,0.9-4.1,1.4-6.5,1.4c-3.2,0-5.9-0.7-8.1-2s-4.2-3-5.8-5.2l-5.5,4.3c0.8,1.3,1.9,2.6,3.1,3.8
		s2.6,2.3,4.2,3.3s3.5,1.7,5.5,2.3C-198,179.7-195.6,180-193,180L-193,180z M-191.8,132.6c1.8,0,3.5,0.3,5,1s2.9,1.6,4.1,2.9
		s2.2,2.8,3,4.7c0.8,1.9,1.3,4.1,1.6,6.5h-26.5V147c0.1-1.8,0.4-3.5,0.9-5.2c0.5-1.7,1.2-3.3,2.2-4.6s2.3-2.5,3.8-3.3
		S-194.2,132.6-191.8,132.6L-191.8,132.6z"/>
	<path id="card" inkscape:connector-curvature="0" sketch:type="MSShapeGroup" d="M-82.6,175c1.9,0,3.6-0.3,5.3-0.8
		c1.7-0.5,3.2-1.3,4.6-2.4s2.4-2.3,3.3-3.9s1.4-3.3,1.5-5.3h5.6c-0.1,2.5-0.8,4.8-1.9,6.9c-1.1,2.1-2.6,3.9-4.4,5.5
		c-1.8,1.5-4,2.7-6.4,3.6s-4.9,1.3-7.6,1.3c-3.7,0-7-0.7-9.8-2c-2.8-1.4-5.2-3.2-7.1-5.6s-3.3-5.2-4.3-8.4c-1-3.2-1.4-6.7-1.4-10.4
		v-2.1c0-3.7,0.5-7.2,1.4-10.4c1-3.2,2.4-6,4.3-8.4c1.9-2.4,4.2-4.2,7.1-5.6c2.8-1.4,6.1-2.1,9.7-2.1c2.8,0,5.5,0.4,7.9,1.3
		s4.5,2.1,6.3,3.8c1.8,1.6,3.2,3.6,4.3,5.9c1.1,2.3,1.7,4.9,1.8,7.8h-5.6c-0.1-2.1-0.6-4.1-1.4-5.8c-0.8-1.7-1.9-3.1-3.2-4.3
		c-1.3-1.2-2.8-2.1-4.6-2.8s-3.6-1-5.6-1c-3,0-5.6,0.6-7.7,1.8c-2.1,1.2-3.8,2.8-5.2,4.7s-2.3,4.3-2.9,6.8c-0.6,2.6-0.9,5.3-0.9,8.1
		v2.1c0,2.8,0.3,5.5,0.9,8.1c0.6,2.6,1.6,4.9,2.9,6.8c1.3,2,3,3.5,5.2,4.7C-88.2,174.4-85.6,175-82.6,175L-82.6,175z M-17.2,179
		c-0.3-0.9-0.6-2-0.8-3.3c-0.2-1.3-0.3-2.7-0.4-4c-0.9,1.1-1.9,2.2-3.1,3.2c-1.2,1-2.6,1.9-4.1,2.6c-1.5,0.7-3.1,1.4-4.9,1.8
		s-3.7,0.7-5.8,0.7c-2.6,0-4.9-0.4-7-1.1c-2.1-0.7-3.9-1.8-5.4-3.2c-1.5-1.4-2.6-2.9-3.4-4.8c-0.8-1.8-1.2-3.8-1.2-6
		c0-2.6,0.6-4.9,1.7-7c1.1-2.1,2.7-3.8,4.8-5.3c2.1-1.4,4.6-2.6,7.6-3.3c3-0.8,6.3-1.1,10-1.1h10.8v-6c0-3.8-1.2-6.7-3.5-8.9
		s-5.7-3.2-10.2-3.2c-2.1,0-3.9,0.3-5.7,0.8c-1.7,0.6-3.2,1.3-4.5,2.3c-1.3,1-2.2,2.1-2.9,3.4c-0.7,1.3-1.1,2.7-1.1,4.1l-5.9,0
		c0-2,0.5-3.9,1.5-5.8s2.4-3.5,4.1-5c1.8-1.4,3.9-2.6,6.4-3.5c2.5-0.9,5.3-1.3,8.3-1.3c2.8,0,5.4,0.4,7.7,1.1
		c2.4,0.7,4.4,1.8,6.1,3.2s3,3.2,4,5.4c0.9,2.1,1.4,4.7,1.4,7.5v25.6c0,0.9,0,1.9,0.1,2.8c0.1,1,0.2,1.9,0.3,2.8
		c0.1,0.9,0.3,1.8,0.5,2.6c0.2,0.8,0.4,1.6,0.7,2.2v0.6C-10.9,179-17.2,179-17.2,179z M-35.6,174.8c2.1,0,4.1-0.3,5.9-0.8
		c1.8-0.5,3.4-1.3,4.9-2.2c1.5-0.9,2.7-2,3.8-3.3c1.1-1.3,1.9-2.6,2.6-4.1v-11.6h-10c-3,0-5.7,0.3-8,0.8c-2.4,0.5-4.4,1.3-6,2.3
		c-1.6,1-2.9,2.2-3.7,3.7c-0.9,1.4-1.3,3.1-1.3,4.9c0,1.4,0.3,2.8,0.8,4c0.6,1.3,1.3,2.3,2.4,3.3s2.3,1.7,3.7,2.2
		C-39,174.5-37.4,174.8-35.6,174.8L-35.6,174.8z M27.4,131.1c-1.2-0.2-2.6-0.3-4-0.3c-2,0-3.8,0.3-5.4,0.9s-3,1.4-4.2,2.5
		s-2.2,2.3-3.1,3.8c-0.8,1.4-1.5,3.1-2,4.8V179H3v-52.8h5.7l0.1,8.4c1.4-2.9,3.4-5.2,5.8-6.9c2.5-1.7,5.5-2.5,9.1-2.5
		c0.7,0,1.4,0.1,2.2,0.2c0.7,0.1,1.3,0.3,1.7,0.4C27.6,125.8,27.4,131.1,27.4,131.1z M33.4,152.1c0-4.1,0.5-7.8,1.4-11.1
		c0.9-3.3,2.3-6.1,4.1-8.5c1.8-2.3,3.9-4.2,6.4-5.4c2.5-1.3,5.4-1.9,8.5-1.9c3.7,0,7,0.7,9.6,2.2c2.7,1.5,4.9,3.6,6.7,6.2V104h5.8
		v75h-5.5l-0.2-7c-1.8,2.5-4,4.5-6.7,5.9c-2.7,1.4-6,2.1-9.8,2.1c-3.1,0-5.9-0.7-8.4-2c-2.5-1.3-4.6-3.2-6.4-5.5s-3.1-5.2-4.1-8.5
		c-0.9-3.3-1.4-6.9-1.4-10.9C33.4,153.1,33.4,152.1,33.4,152.1z M39.3,153.1c0,3.1,0.3,6,0.9,8.6c0.6,2.7,1.6,5,2.8,6.9
		c1.3,2,2.9,3.5,4.8,4.6c1.9,1.1,4.2,1.7,6.9,1.7c2,0,3.8-0.2,5.4-0.7c1.6-0.5,3-1.1,4.3-2c1.3-0.8,2.3-1.9,3.3-3
		c0.9-1.2,1.7-2.4,2.4-3.8v-24.8c-0.6-1.3-1.3-2.6-2.1-3.9s-1.9-2.3-3.1-3.3c-1.2-1-2.7-1.7-4.3-2.3c-1.6-0.6-3.5-0.9-5.7-0.9
		c-2.7,0-5,0.6-7,1.7s-3.6,2.7-4.8,4.6c-1.3,2-2.2,4.3-2.8,6.9s-0.9,5.5-0.9,8.6V153.1z"/>
</g>
</svg>
